<svg width="40" height="40" viewBox="0 0 40 40" fill="none" xmlns="http://www.w3.org/2000/svg">
<path d="M20 10.9091C14.9818 10.9091 10.9091 14.9818 10.9091 20C10.9091 25.0182 14.9818 29.0909 20 29.0909C25.0182 29.0909 29.0909 25.0182 29.0909 20C29.0909 14.9818 25.0182 10.9091 20 10.9091ZM1.81818 21.8182H5.45455C6.45455 21.8182 7.27273 21 7.27273 20C7.27273 19 6.45455 18.1818 5.45455 18.1818H1.81818C0.818182 18.1818 0 19 0 20C0 21 0.818182 21.8182 1.81818 21.8182ZM34.5455 21.8182H38.1818C39.1818 21.8182 40 21 40 20C40 19 39.1818 18.1818 38.1818 18.1818H34.5455C33.5455 18.1818 32.7273 19 32.7273 20C32.7273 21 33.5455 21.8182 34.5455 21.8182ZM18.1818 1.81818V5.45455C18.1818 6.45455 19 7.27273 20 7.27273C21 7.27273 21.8182 6.45455 21.8182 5.45455V1.81818C21.8182 0.818182 21 0 20 0C19 0 18.1818 0.818182 18.1818 1.81818ZM18.1818 34.5455V38.1818C18.1818 39.1818 19 40 20 40C21 40 21.8182 39.1818 21.8182 38.1818V34.5455C21.8182 33.5455 21 32.7273 20 32.7273C19 32.7273 18.1818 33.5455 18.1818 34.5455ZM9.07273 6.50909C8.36364 5.8 7.2 5.8 6.50909 6.50909C5.8 7.21818 5.8 8.38182 6.50909 9.07273L8.43636 11C9.14545 11.7091 10.3091 11.7091 11 11C11.6909 10.2909 11.7091 9.12727 11 8.43636L9.07273 6.50909ZM31.5636 29C30.8545 28.2909 29.6909 28.2909 29 29C28.2909 29.7091 28.2909 30.8727 29 31.5636L30.9273 33.4909C31.6364 34.2 32.8 34.2 33.4909 33.4909C34.2 32.7818 34.2 31.6182 33.4909 30.9273L31.5636 29ZM33.4909 9.07273C34.2 8.36364 34.2 7.2 33.4909 6.50909C32.7818 5.8 31.6182 5.8 30.9273 6.50909L29 8.43636C28.2909 9.14545 28.2909 10.3091 29 11C29.7091 11.6909 30.8727 11.7091 31.5636 11L33.4909 9.07273ZM11 31.5636C11.7091 30.8545 11.7091 29.6909 11 29C10.2909 28.2909 9.12727 28.2909 8.43636 29L6.50909 30.9273C5.8 31.6364 5.8 32.8 6.50909 33.4909C7.21818 34.1818 8.38182 34.2 9.07273 33.4909L11 31.5636Z" fill="white"/>
</svg>
